<mxfile host="Electron" modified="2024-04-20T15:27:45.895Z" agent="Mozilla/5.0 (Windows NT 10.0; Win64; x64) AppleWebKit/537.36 (KHTML, like Gecko) draw.io/24.0.4 Chrome/120.0.6099.109 Electron/28.1.0 Safari/537.36" etag="PP7-GOdThpTGfNy_9Or1" version="24.0.4" type="device">
  <diagram name="Page-1" id="4EGae2wpdwWOJSjH_W4X">
    <mxGraphModel dx="2577" dy="2204" grid="1" gridSize="10" guides="1" tooltips="1" connect="1" arrows="1" fold="1" page="1" pageScale="1" pageWidth="827" pageHeight="1169" math="0" shadow="0">
      <root>
        <mxCell id="0" />
        <mxCell id="1" parent="0" />
        <mxCell id="c-2YlFzcPJ7fmJTQ_dwO-27" style="edgeStyle=orthogonalEdgeStyle;rounded=0;orthogonalLoop=1;jettySize=auto;html=1;exitX=0.25;exitY=1;exitDx=0;exitDy=0;entryX=0.75;entryY=0;entryDx=0;entryDy=0;fillColor=#f8cecc;strokeColor=#b85450;strokeWidth=2;spacing=1;endArrow=openThin;endFill=0;" edge="1" parent="1" source="c-2YlFzcPJ7fmJTQ_dwO-1" target="c-2YlFzcPJ7fmJTQ_dwO-2">
          <mxGeometry relative="1" as="geometry" />
        </mxCell>
        <mxCell id="c-2YlFzcPJ7fmJTQ_dwO-32" value="motor 2" style="edgeLabel;html=1;align=center;verticalAlign=middle;resizable=0;points=[];fontSize=13;fontFamily=Times New Roman;spacing=1;" vertex="1" connectable="0" parent="c-2YlFzcPJ7fmJTQ_dwO-27">
          <mxGeometry x="-0.198" relative="1" as="geometry">
            <mxPoint x="5" y="-22" as="offset" />
          </mxGeometry>
        </mxCell>
        <mxCell id="c-2YlFzcPJ7fmJTQ_dwO-28" style="edgeStyle=orthogonalEdgeStyle;rounded=0;orthogonalLoop=1;jettySize=auto;html=1;exitX=0.75;exitY=1;exitDx=0;exitDy=0;entryX=0.25;entryY=0;entryDx=0;entryDy=0;fillColor=#f8cecc;strokeColor=#b85450;strokeWidth=2;spacing=1;endArrow=openThin;endFill=0;" edge="1" parent="1" source="c-2YlFzcPJ7fmJTQ_dwO-1" target="c-2YlFzcPJ7fmJTQ_dwO-3">
          <mxGeometry relative="1" as="geometry" />
        </mxCell>
        <mxCell id="c-2YlFzcPJ7fmJTQ_dwO-33" value="motor 3" style="edgeLabel;html=1;align=center;verticalAlign=middle;resizable=0;points=[];fontSize=13;fontFamily=Times New Roman;spacing=1;" vertex="1" connectable="0" parent="c-2YlFzcPJ7fmJTQ_dwO-28">
          <mxGeometry x="-0.53" y="-2" relative="1" as="geometry">
            <mxPoint x="-8" y="-1" as="offset" />
          </mxGeometry>
        </mxCell>
        <mxCell id="c-2YlFzcPJ7fmJTQ_dwO-35" style="edgeStyle=orthogonalEdgeStyle;rounded=0;orthogonalLoop=1;jettySize=auto;html=1;exitX=0.5;exitY=1;exitDx=0;exitDy=0;entryX=1;entryY=0.5;entryDx=0;entryDy=0;fillColor=#dae8fc;strokeColor=#6c8ebf;strokeWidth=2;spacing=1;endArrow=openThin;endFill=0;" edge="1" parent="1" source="c-2YlFzcPJ7fmJTQ_dwO-1" target="c-2YlFzcPJ7fmJTQ_dwO-2">
          <mxGeometry relative="1" as="geometry" />
        </mxCell>
        <mxCell id="c-2YlFzcPJ7fmJTQ_dwO-36" style="edgeStyle=orthogonalEdgeStyle;rounded=0;orthogonalLoop=1;jettySize=auto;html=1;exitX=0.5;exitY=1;exitDx=0;exitDy=0;entryX=0;entryY=0.5;entryDx=0;entryDy=0;fillColor=#dae8fc;strokeColor=#6c8ebf;strokeWidth=2;spacing=1;endArrow=openThin;endFill=0;" edge="1" parent="1" source="c-2YlFzcPJ7fmJTQ_dwO-1" target="c-2YlFzcPJ7fmJTQ_dwO-3">
          <mxGeometry relative="1" as="geometry" />
        </mxCell>
        <mxCell id="c-2YlFzcPJ7fmJTQ_dwO-37" value="5v" style="edgeLabel;html=1;align=center;verticalAlign=middle;resizable=0;points=[];fontSize=13;fontFamily=Times New Roman;spacing=1;" vertex="1" connectable="0" parent="c-2YlFzcPJ7fmJTQ_dwO-36">
          <mxGeometry x="-0.1498" y="-1" relative="1" as="geometry">
            <mxPoint as="offset" />
          </mxGeometry>
        </mxCell>
        <mxCell id="c-2YlFzcPJ7fmJTQ_dwO-1" value="&lt;font face=&quot;Times New Roman&quot; style=&quot;font-size: 15px;&quot;&gt;Arduino Mega 2560 Rev3&lt;/font&gt;" style="rounded=0;whiteSpace=wrap;html=1;fillColor=#d5e8d4;strokeColor=#82b366;strokeWidth=2;spacing=1;" vertex="1" parent="1">
          <mxGeometry x="260" y="-310" width="280" height="160" as="geometry" />
        </mxCell>
        <mxCell id="c-2YlFzcPJ7fmJTQ_dwO-7" style="edgeStyle=orthogonalEdgeStyle;rounded=0;orthogonalLoop=1;jettySize=auto;html=1;exitX=0;exitY=0.25;exitDx=0;exitDy=0;entryX=1;entryY=0.5;entryDx=0;entryDy=0;strokeWidth=2;spacing=1;endArrow=openThin;endFill=0;" edge="1" parent="1" source="c-2YlFzcPJ7fmJTQ_dwO-2" target="c-2YlFzcPJ7fmJTQ_dwO-6">
          <mxGeometry relative="1" as="geometry" />
        </mxCell>
        <mxCell id="c-2YlFzcPJ7fmJTQ_dwO-64" style="edgeStyle=orthogonalEdgeStyle;rounded=0;orthogonalLoop=1;jettySize=auto;html=1;entryX=1;entryY=0.5;entryDx=0;entryDy=0;strokeWidth=2;spacing=1;endArrow=openThin;endFill=0;" edge="1" parent="1" source="c-2YlFzcPJ7fmJTQ_dwO-2" target="c-2YlFzcPJ7fmJTQ_dwO-8">
          <mxGeometry relative="1" as="geometry" />
        </mxCell>
        <mxCell id="c-2YlFzcPJ7fmJTQ_dwO-2" value="&lt;font face=&quot;Times New Roman&quot; style=&quot;font-size: 15px;&quot;&gt;BTS7960&amp;nbsp;&lt;/font&gt;&lt;div&gt;&lt;font face=&quot;Times New Roman&quot; style=&quot;font-size: 15px;&quot;&gt;motor driver&lt;/font&gt;&lt;/div&gt;" style="whiteSpace=wrap;html=1;aspect=fixed;fillColor=#f8cecc;strokeColor=#b85450;strokeWidth=2;spacing=1;" vertex="1" parent="1">
          <mxGeometry x="247" y="-20" width="110" height="110" as="geometry" />
        </mxCell>
        <mxCell id="c-2YlFzcPJ7fmJTQ_dwO-12" style="edgeStyle=orthogonalEdgeStyle;rounded=0;orthogonalLoop=1;jettySize=auto;html=1;exitX=1;exitY=0.25;exitDx=0;exitDy=0;entryX=0;entryY=0.5;entryDx=0;entryDy=0;strokeWidth=2;spacing=1;endArrow=openThin;endFill=0;" edge="1" parent="1" source="c-2YlFzcPJ7fmJTQ_dwO-3" target="c-2YlFzcPJ7fmJTQ_dwO-10">
          <mxGeometry relative="1" as="geometry" />
        </mxCell>
        <mxCell id="c-2YlFzcPJ7fmJTQ_dwO-63" style="edgeStyle=orthogonalEdgeStyle;rounded=0;orthogonalLoop=1;jettySize=auto;html=1;exitX=1;exitY=0.5;exitDx=0;exitDy=0;entryX=0;entryY=0.5;entryDx=0;entryDy=0;strokeWidth=2;spacing=1;endArrow=openThin;endFill=0;" edge="1" parent="1" source="c-2YlFzcPJ7fmJTQ_dwO-3" target="c-2YlFzcPJ7fmJTQ_dwO-11">
          <mxGeometry relative="1" as="geometry" />
        </mxCell>
        <mxCell id="c-2YlFzcPJ7fmJTQ_dwO-3" value="&lt;font face=&quot;Times New Roman&quot; style=&quot;font-size: 15px;&quot;&gt;BTS7960&lt;/font&gt;&lt;div&gt;&lt;font face=&quot;Times New Roman&quot; style=&quot;font-size: 15px;&quot;&gt;motor driver&lt;/font&gt;&lt;/div&gt;" style="whiteSpace=wrap;html=1;aspect=fixed;fillColor=#f8cecc;strokeColor=#b85450;strokeWidth=2;spacing=1;" vertex="1" parent="1">
          <mxGeometry x="442" y="-20" width="110" height="110" as="geometry" />
        </mxCell>
        <mxCell id="c-2YlFzcPJ7fmJTQ_dwO-50" value="" style="edgeStyle=orthogonalEdgeStyle;rounded=0;orthogonalLoop=1;jettySize=auto;html=1;strokeWidth=2;spacing=1;endArrow=openThin;endFill=0;" edge="1" parent="1" source="c-2YlFzcPJ7fmJTQ_dwO-6" target="c-2YlFzcPJ7fmJTQ_dwO-40">
          <mxGeometry relative="1" as="geometry" />
        </mxCell>
        <mxCell id="c-2YlFzcPJ7fmJTQ_dwO-6" value="&lt;font face=&quot;Times New Roman&quot;&gt;&lt;span style=&quot;font-size: 15px;&quot;&gt;motor 1&lt;/span&gt;&lt;/font&gt;" style="ellipse;whiteSpace=wrap;html=1;aspect=fixed;fillColor=#fff2cc;strokeColor=#d6b656;strokeWidth=2;spacing=1;" vertex="1" parent="1">
          <mxGeometry x="110" y="-70" width="100" height="100" as="geometry" />
        </mxCell>
        <mxCell id="c-2YlFzcPJ7fmJTQ_dwO-47" style="edgeStyle=orthogonalEdgeStyle;rounded=0;orthogonalLoop=1;jettySize=auto;html=1;exitX=0;exitY=0.5;exitDx=0;exitDy=0;entryX=1;entryY=0.5;entryDx=0;entryDy=0;strokeWidth=2;spacing=1;endArrow=openThin;endFill=0;" edge="1" parent="1" source="c-2YlFzcPJ7fmJTQ_dwO-8" target="c-2YlFzcPJ7fmJTQ_dwO-43">
          <mxGeometry relative="1" as="geometry" />
        </mxCell>
        <mxCell id="c-2YlFzcPJ7fmJTQ_dwO-8" value="&lt;font face=&quot;Times New Roman&quot;&gt;&lt;span style=&quot;font-size: 15px;&quot;&gt;motor 2&lt;/span&gt;&lt;/font&gt;" style="ellipse;whiteSpace=wrap;html=1;aspect=fixed;fillColor=#fff2cc;strokeColor=#d6b656;strokeWidth=2;spacing=1;" vertex="1" parent="1">
          <mxGeometry x="110" y="50" width="100" height="100" as="geometry" />
        </mxCell>
        <mxCell id="c-2YlFzcPJ7fmJTQ_dwO-48" value="" style="edgeStyle=orthogonalEdgeStyle;rounded=0;orthogonalLoop=1;jettySize=auto;html=1;strokeWidth=2;spacing=1;endArrow=openThin;endFill=0;" edge="1" parent="1" source="c-2YlFzcPJ7fmJTQ_dwO-10" target="c-2YlFzcPJ7fmJTQ_dwO-44">
          <mxGeometry relative="1" as="geometry" />
        </mxCell>
        <mxCell id="c-2YlFzcPJ7fmJTQ_dwO-10" value="&lt;font face=&quot;Times New Roman&quot; style=&quot;font-size: 15px;&quot;&gt;&lt;span style=&quot;font-size: 15px;&quot;&gt;motor 3&lt;/span&gt;&lt;/font&gt;" style="ellipse;whiteSpace=wrap;html=1;aspect=fixed;fillColor=#fff2cc;strokeColor=#d6b656;fontSize=15;strokeWidth=2;spacing=1;" vertex="1" parent="1">
          <mxGeometry x="590" y="-70" width="100" height="100" as="geometry" />
        </mxCell>
        <mxCell id="c-2YlFzcPJ7fmJTQ_dwO-49" value="" style="edgeStyle=orthogonalEdgeStyle;rounded=0;orthogonalLoop=1;jettySize=auto;html=1;strokeWidth=2;spacing=1;endArrow=openThin;endFill=0;" edge="1" parent="1" source="c-2YlFzcPJ7fmJTQ_dwO-11" target="c-2YlFzcPJ7fmJTQ_dwO-45">
          <mxGeometry relative="1" as="geometry" />
        </mxCell>
        <mxCell id="c-2YlFzcPJ7fmJTQ_dwO-11" value="motor 4" style="ellipse;whiteSpace=wrap;html=1;aspect=fixed;fillColor=#fff2cc;strokeColor=#d6b656;fontSize=15;fontFamily=Times New Roman;strokeWidth=2;spacing=1;" vertex="1" parent="1">
          <mxGeometry x="590" y="50" width="100" height="100" as="geometry" />
        </mxCell>
        <mxCell id="c-2YlFzcPJ7fmJTQ_dwO-29" style="edgeStyle=orthogonalEdgeStyle;rounded=0;orthogonalLoop=1;jettySize=auto;html=1;exitX=0.25;exitY=1;exitDx=0;exitDy=0;entryX=0.75;entryY=0;entryDx=0;entryDy=0;fillColor=#f8cecc;strokeColor=#b85450;strokeWidth=2;spacing=1;endArrow=openThin;endFill=0;" edge="1" parent="1">
          <mxGeometry relative="1" as="geometry">
            <mxPoint x="290" y="-150" as="sourcePoint" />
            <mxPoint x="290" y="-20" as="targetPoint" />
          </mxGeometry>
        </mxCell>
        <mxCell id="c-2YlFzcPJ7fmJTQ_dwO-42" value="motor 1" style="edgeLabel;html=1;align=center;verticalAlign=middle;resizable=0;points=[];fontSize=13;fontFamily=Times New Roman;spacing=1;" vertex="1" connectable="0" parent="c-2YlFzcPJ7fmJTQ_dwO-29">
          <mxGeometry x="-0.5667" relative="1" as="geometry">
            <mxPoint x="-10" y="2" as="offset" />
          </mxGeometry>
        </mxCell>
        <mxCell id="c-2YlFzcPJ7fmJTQ_dwO-30" style="edgeStyle=orthogonalEdgeStyle;rounded=0;orthogonalLoop=1;jettySize=auto;html=1;exitX=0.25;exitY=1;exitDx=0;exitDy=0;entryX=0.75;entryY=0;entryDx=0;entryDy=0;fillColor=#f8cecc;strokeColor=#b85450;strokeWidth=2;spacing=1;endArrow=openThin;endFill=0;" edge="1" parent="1">
          <mxGeometry relative="1" as="geometry">
            <mxPoint x="510" y="-150" as="sourcePoint" />
            <mxPoint x="510" y="-20" as="targetPoint" />
          </mxGeometry>
        </mxCell>
        <mxCell id="c-2YlFzcPJ7fmJTQ_dwO-34" value="motor 4" style="edgeLabel;html=1;align=center;verticalAlign=middle;resizable=0;points=[];fontSize=13;fontFamily=Times New Roman;spacing=1;" vertex="1" connectable="0" parent="c-2YlFzcPJ7fmJTQ_dwO-30">
          <mxGeometry x="-0.1564" y="2" relative="1" as="geometry">
            <mxPoint x="8" y="-25" as="offset" />
          </mxGeometry>
        </mxCell>
        <mxCell id="c-2YlFzcPJ7fmJTQ_dwO-88" style="edgeStyle=orthogonalEdgeStyle;rounded=0;orthogonalLoop=1;jettySize=auto;html=1;exitX=0.25;exitY=0;exitDx=0;exitDy=0;entryX=0.5;entryY=1;entryDx=0;entryDy=0;strokeWidth=2;spacing=1;endArrow=openThin;endFill=0;" edge="1" parent="1" source="c-2YlFzcPJ7fmJTQ_dwO-40" target="c-2YlFzcPJ7fmJTQ_dwO-85">
          <mxGeometry relative="1" as="geometry" />
        </mxCell>
        <mxCell id="c-2YlFzcPJ7fmJTQ_dwO-91" value="release gas" style="edgeLabel;html=1;align=center;verticalAlign=middle;resizable=0;points=[];fontSize=13;fontFamily=Times New Roman;spacing=1;" vertex="1" connectable="0" parent="c-2YlFzcPJ7fmJTQ_dwO-88">
          <mxGeometry x="-0.0108" y="1" relative="1" as="geometry">
            <mxPoint as="offset" />
          </mxGeometry>
        </mxCell>
        <mxCell id="c-2YlFzcPJ7fmJTQ_dwO-40" value="Air pump" style="rounded=1;whiteSpace=wrap;html=1;fontSize=15;fontFamily=Times New Roman;spacing=1;" vertex="1" parent="1">
          <mxGeometry x="-40" y="-50" width="120" height="60" as="geometry" />
        </mxCell>
        <mxCell id="c-2YlFzcPJ7fmJTQ_dwO-43" value="Horizontal screw" style="rounded=1;whiteSpace=wrap;html=1;fontSize=15;fontFamily=Times New Roman;spacing=1;" vertex="1" parent="1">
          <mxGeometry x="-40" y="70" width="120" height="60" as="geometry" />
        </mxCell>
        <mxCell id="c-2YlFzcPJ7fmJTQ_dwO-44" value="Lifter Up/Down" style="rounded=1;whiteSpace=wrap;html=1;fontSize=15;fontFamily=Times New Roman;spacing=1;" vertex="1" parent="1">
          <mxGeometry x="720.25" y="-50" width="120" height="60" as="geometry" />
        </mxCell>
        <mxCell id="c-2YlFzcPJ7fmJTQ_dwO-45" value="Base plate rotation" style="rounded=1;whiteSpace=wrap;html=1;fontSize=15;fontFamily=Times New Roman;spacing=1;" vertex="1" parent="1">
          <mxGeometry x="720.25" y="70" width="120" height="60" as="geometry" />
        </mxCell>
        <mxCell id="c-2YlFzcPJ7fmJTQ_dwO-62" value="" style="edgeStyle=orthogonalEdgeStyle;rounded=0;orthogonalLoop=1;jettySize=auto;html=1;strokeWidth=2;spacing=1;endArrow=openThin;endFill=0;" edge="1" parent="1" source="c-2YlFzcPJ7fmJTQ_dwO-52" target="c-2YlFzcPJ7fmJTQ_dwO-61">
          <mxGeometry relative="1" as="geometry" />
        </mxCell>
        <mxCell id="c-2YlFzcPJ7fmJTQ_dwO-52" value="&lt;font face=&quot;Times New Roman&quot; style=&quot;font-size: 15px;&quot;&gt;Servo&lt;/font&gt;" style="shape=or;whiteSpace=wrap;html=1;fillColor=#fff2cc;strokeColor=#d6b656;strokeWidth=2;spacing=1;" vertex="1" parent="1">
          <mxGeometry x="611.75" y="-275" width="56.5" height="90" as="geometry" />
        </mxCell>
        <mxCell id="c-2YlFzcPJ7fmJTQ_dwO-57" style="edgeStyle=orthogonalEdgeStyle;rounded=0;orthogonalLoop=1;jettySize=auto;html=1;exitX=1;exitY=0.5;exitDx=0;exitDy=0;entryX=0;entryY=0.5;entryDx=0;entryDy=0;entryPerimeter=0;fillColor=#f8cecc;strokeColor=#b85450;strokeWidth=2;spacing=1;endArrow=openThin;endFill=0;" edge="1" parent="1" source="c-2YlFzcPJ7fmJTQ_dwO-1" target="c-2YlFzcPJ7fmJTQ_dwO-52">
          <mxGeometry relative="1" as="geometry" />
        </mxCell>
        <mxCell id="c-2YlFzcPJ7fmJTQ_dwO-58" value="servo" style="edgeLabel;html=1;align=center;verticalAlign=middle;resizable=0;points=[];fontSize=13;fontFamily=Times New Roman;spacing=1;" vertex="1" connectable="0" parent="c-2YlFzcPJ7fmJTQ_dwO-57">
          <mxGeometry x="0.0998" relative="1" as="geometry">
            <mxPoint x="-8" as="offset" />
          </mxGeometry>
        </mxCell>
        <mxCell id="c-2YlFzcPJ7fmJTQ_dwO-61" value="Gripper rotation" style="rounded=1;whiteSpace=wrap;html=1;fontSize=15;fontFamily=Times New Roman;spacing=1;" vertex="1" parent="1">
          <mxGeometry x="720.25" y="-260" width="120" height="60" as="geometry" />
        </mxCell>
        <mxCell id="c-2YlFzcPJ7fmJTQ_dwO-66" style="edgeStyle=orthogonalEdgeStyle;rounded=0;orthogonalLoop=1;jettySize=auto;html=1;exitX=1;exitY=0.5;exitDx=0;exitDy=0;entryX=0;entryY=0.5;entryDx=0;entryDy=0;entryPerimeter=0;fillColor=#dae8fc;strokeColor=#6c8ebf;strokeWidth=2;spacing=1;endArrow=openThin;endFill=0;" edge="1" parent="1">
          <mxGeometry relative="1" as="geometry">
            <mxPoint x="540" y="-247" as="sourcePoint" />
            <mxPoint x="612" y="-247" as="targetPoint" />
          </mxGeometry>
        </mxCell>
        <mxCell id="c-2YlFzcPJ7fmJTQ_dwO-67" value="5v" style="edgeLabel;html=1;align=center;verticalAlign=middle;resizable=0;points=[];fontSize=13;fontFamily=Times New Roman;spacing=1;" vertex="1" connectable="0" parent="c-2YlFzcPJ7fmJTQ_dwO-66">
          <mxGeometry x="0.0998" relative="1" as="geometry">
            <mxPoint x="-8" as="offset" />
          </mxGeometry>
        </mxCell>
        <mxCell id="c-2YlFzcPJ7fmJTQ_dwO-82" value="" style="edgeStyle=orthogonalEdgeStyle;rounded=0;orthogonalLoop=1;jettySize=auto;html=1;dashed=1;dashPattern=1 1;endArrow=none;endFill=0;fillColor=#d5e8d4;strokeColor=#82b366;strokeWidth=3;spacing=1;" edge="1" parent="1" source="c-2YlFzcPJ7fmJTQ_dwO-68" target="c-2YlFzcPJ7fmJTQ_dwO-80">
          <mxGeometry relative="1" as="geometry" />
        </mxCell>
        <mxCell id="c-2YlFzcPJ7fmJTQ_dwO-68" value="&lt;font face=&quot;Times New Roman&quot; style=&quot;font-size: 15px;&quot;&gt;HC-02 Bluetooth module&lt;/font&gt;" style="rounded=0;whiteSpace=wrap;html=1;fillColor=#e1d5e7;strokeColor=#9673a6;strokeWidth=2;spacing=1;" vertex="1" parent="1">
          <mxGeometry x="265" y="-529" width="70" height="130" as="geometry" />
        </mxCell>
        <mxCell id="c-2YlFzcPJ7fmJTQ_dwO-72" value="" style="endArrow=openThin;html=1;rounded=0;entryX=0.5;entryY=1;entryDx=0;entryDy=0;exitX=0.143;exitY=-0.001;exitDx=0;exitDy=0;exitPerimeter=0;fillColor=#f8cecc;strokeColor=#b85450;strokeWidth=2;spacing=1;endFill=0;" edge="1" parent="1" source="c-2YlFzcPJ7fmJTQ_dwO-1" target="c-2YlFzcPJ7fmJTQ_dwO-68">
          <mxGeometry width="50" height="50" relative="1" as="geometry">
            <mxPoint x="300" y="-320" as="sourcePoint" />
            <mxPoint x="300" y="-410" as="targetPoint" />
          </mxGeometry>
        </mxCell>
        <mxCell id="c-2YlFzcPJ7fmJTQ_dwO-73" value="Rx" style="edgeLabel;html=1;align=center;verticalAlign=middle;resizable=0;points=[];fontSize=13;fontFamily=Times New Roman;spacing=1;" vertex="1" connectable="0" parent="c-2YlFzcPJ7fmJTQ_dwO-72">
          <mxGeometry x="0.1452" relative="1" as="geometry">
            <mxPoint as="offset" />
          </mxGeometry>
        </mxCell>
        <mxCell id="c-2YlFzcPJ7fmJTQ_dwO-74" value="" style="endArrow=openThin;html=1;rounded=0;entryX=0.5;entryY=1;entryDx=0;entryDy=0;exitX=0.143;exitY=-0.001;exitDx=0;exitDy=0;exitPerimeter=0;fillColor=#f8cecc;strokeColor=#b85450;strokeWidth=2;spacing=1;endFill=0;" edge="1" parent="1">
          <mxGeometry width="50" height="50" relative="1" as="geometry">
            <mxPoint x="320" y="-310" as="sourcePoint" />
            <mxPoint x="320" y="-399" as="targetPoint" />
          </mxGeometry>
        </mxCell>
        <mxCell id="c-2YlFzcPJ7fmJTQ_dwO-75" value="Tx" style="edgeLabel;html=1;align=center;verticalAlign=middle;resizable=0;points=[];fontSize=13;fontFamily=Times New Roman;spacing=1;" vertex="1" connectable="0" parent="c-2YlFzcPJ7fmJTQ_dwO-74">
          <mxGeometry x="0.1452" relative="1" as="geometry">
            <mxPoint as="offset" />
          </mxGeometry>
        </mxCell>
        <mxCell id="c-2YlFzcPJ7fmJTQ_dwO-77" value="" style="endArrow=openThin;html=1;rounded=0;entryX=0.5;entryY=1;entryDx=0;entryDy=0;exitX=0.143;exitY=-0.001;exitDx=0;exitDy=0;exitPerimeter=0;fillColor=#dae8fc;strokeColor=#6c8ebf;strokeWidth=2;spacing=1;endFill=0;" edge="1" parent="1">
          <mxGeometry width="50" height="50" relative="1" as="geometry">
            <mxPoint x="280" y="-310" as="sourcePoint" />
            <mxPoint x="280" y="-399" as="targetPoint" />
          </mxGeometry>
        </mxCell>
        <mxCell id="c-2YlFzcPJ7fmJTQ_dwO-78" value="5v" style="edgeLabel;html=1;align=center;verticalAlign=middle;resizable=0;points=[];fontSize=13;fontFamily=Times New Roman;spacing=1;" vertex="1" connectable="0" parent="c-2YlFzcPJ7fmJTQ_dwO-77">
          <mxGeometry x="0.1452" relative="1" as="geometry">
            <mxPoint as="offset" />
          </mxGeometry>
        </mxCell>
        <mxCell id="c-2YlFzcPJ7fmJTQ_dwO-80" value="&lt;font face=&quot;Times New Roman&quot; style=&quot;font-size: 15px;&quot;&gt;Mobile phone&lt;/font&gt;" style="rounded=0;whiteSpace=wrap;html=1;fillColor=#ffe6cc;strokeColor=#d79b00;strokeWidth=2;spacing=1;" vertex="1" parent="1">
          <mxGeometry x="21" y="-528" width="138" height="129" as="geometry" />
        </mxCell>
        <mxCell id="c-2YlFzcPJ7fmJTQ_dwO-93" style="edgeStyle=orthogonalEdgeStyle;rounded=0;orthogonalLoop=1;jettySize=auto;html=1;exitX=0.5;exitY=1;exitDx=0;exitDy=0;entryX=0.5;entryY=0;entryDx=0;entryDy=0;fillColor=#dae8fc;strokeColor=#6c8ebf;strokeWidth=2;spacing=1;endArrow=openThin;endFill=0;" edge="1" parent="1" source="c-2YlFzcPJ7fmJTQ_dwO-84" target="c-2YlFzcPJ7fmJTQ_dwO-85">
          <mxGeometry relative="1" as="geometry" />
        </mxCell>
        <mxCell id="c-2YlFzcPJ7fmJTQ_dwO-84" value="Relay" style="rounded=0;whiteSpace=wrap;html=1;fillColor=#e1d5e7;strokeColor=#9673a6;fontSize=15;fontFamily=Times New Roman;strokeWidth=2;spacing=1;" vertex="1" parent="1">
          <mxGeometry x="23.25" y="-338" width="129" height="70" as="geometry" />
        </mxCell>
        <mxCell id="c-2YlFzcPJ7fmJTQ_dwO-85" value="Solenoid Valve" style="rounded=0;whiteSpace=wrap;html=1;fillColor=#e1d5e7;strokeColor=#9673a6;fontSize=15;fontFamily=Times New Roman;strokeWidth=2;spacing=1;" vertex="1" parent="1">
          <mxGeometry x="25.5" y="-220" width="124.5" height="70" as="geometry" />
        </mxCell>
        <mxCell id="c-2YlFzcPJ7fmJTQ_dwO-98" style="edgeStyle=orthogonalEdgeStyle;rounded=0;orthogonalLoop=1;jettySize=auto;html=1;exitX=1;exitY=0.5;exitDx=0;exitDy=0;entryX=0.5;entryY=1;entryDx=0;entryDy=0;fillColor=#dae8fc;strokeColor=#6c8ebf;strokeWidth=2;spacing=1;endArrow=openThin;endFill=0;" edge="1" parent="1" source="c-2YlFzcPJ7fmJTQ_dwO-97" target="c-2YlFzcPJ7fmJTQ_dwO-3">
          <mxGeometry relative="1" as="geometry">
            <Array as="points">
              <mxPoint x="860" y="-350" />
              <mxPoint x="860" y="180" />
              <mxPoint x="497" y="180" />
            </Array>
          </mxGeometry>
        </mxCell>
        <mxCell id="c-2YlFzcPJ7fmJTQ_dwO-101" value="12v" style="edgeLabel;html=1;align=center;verticalAlign=middle;resizable=0;points=[];fontSize=13;fontFamily=Times New Roman;spacing=1;" vertex="1" connectable="0" parent="c-2YlFzcPJ7fmJTQ_dwO-98">
          <mxGeometry x="0.85" relative="1" as="geometry">
            <mxPoint y="-18" as="offset" />
          </mxGeometry>
        </mxCell>
        <mxCell id="c-2YlFzcPJ7fmJTQ_dwO-99" style="edgeStyle=orthogonalEdgeStyle;rounded=0;orthogonalLoop=1;jettySize=auto;html=1;exitX=1;exitY=0.5;exitDx=0;exitDy=0;entryX=0.5;entryY=1;entryDx=0;entryDy=0;fillColor=#dae8fc;strokeColor=#6c8ebf;strokeWidth=2;spacing=1;endArrow=openThin;endFill=0;" edge="1" parent="1" source="c-2YlFzcPJ7fmJTQ_dwO-97" target="c-2YlFzcPJ7fmJTQ_dwO-2">
          <mxGeometry relative="1" as="geometry">
            <Array as="points">
              <mxPoint x="860" y="-350" />
              <mxPoint x="860" y="180" />
              <mxPoint x="302" y="180" />
            </Array>
          </mxGeometry>
        </mxCell>
        <mxCell id="c-2YlFzcPJ7fmJTQ_dwO-100" value="12v" style="edgeLabel;html=1;align=center;verticalAlign=middle;resizable=0;points=[];fontSize=13;fontFamily=Times New Roman;spacing=1;" vertex="1" connectable="0" parent="c-2YlFzcPJ7fmJTQ_dwO-99">
          <mxGeometry x="0.873" relative="1" as="geometry">
            <mxPoint y="-18" as="offset" />
          </mxGeometry>
        </mxCell>
        <mxCell id="c-2YlFzcPJ7fmJTQ_dwO-102" style="edgeStyle=orthogonalEdgeStyle;rounded=0;orthogonalLoop=1;jettySize=auto;html=1;exitX=1;exitY=0.5;exitDx=0;exitDy=0;entryX=0;entryY=0.5;entryDx=0;entryDy=0;fillColor=#dae8fc;strokeColor=#6c8ebf;strokeWidth=2;spacing=1;endArrow=openThin;endFill=0;" edge="1" parent="1" source="c-2YlFzcPJ7fmJTQ_dwO-97" target="c-2YlFzcPJ7fmJTQ_dwO-84">
          <mxGeometry relative="1" as="geometry">
            <Array as="points">
              <mxPoint x="860" y="-350" />
              <mxPoint x="860" y="180" />
              <mxPoint x="-60" y="180" />
              <mxPoint x="-60" y="-303" />
            </Array>
          </mxGeometry>
        </mxCell>
        <mxCell id="c-2YlFzcPJ7fmJTQ_dwO-103" value="12v" style="edgeLabel;html=1;align=center;verticalAlign=middle;resizable=0;points=[];fontSize=13;fontFamily=Times New Roman;spacing=1;" vertex="1" connectable="0" parent="c-2YlFzcPJ7fmJTQ_dwO-102">
          <mxGeometry x="0.6796" y="3" relative="1" as="geometry">
            <mxPoint as="offset" />
          </mxGeometry>
        </mxCell>
        <mxCell id="c-2YlFzcPJ7fmJTQ_dwO-127" style="edgeStyle=orthogonalEdgeStyle;rounded=0;orthogonalLoop=1;jettySize=auto;html=1;exitX=0;exitY=0.5;exitDx=0;exitDy=0;entryX=0.5;entryY=0;entryDx=0;entryDy=0;fillColor=#dae8fc;strokeColor=#6c8ebf;strokeWidth=2;spacing=1;endArrow=openThin;endFill=0;" edge="1" parent="1" source="c-2YlFzcPJ7fmJTQ_dwO-97" target="c-2YlFzcPJ7fmJTQ_dwO-1">
          <mxGeometry relative="1" as="geometry" />
        </mxCell>
        <mxCell id="c-2YlFzcPJ7fmJTQ_dwO-128" value="12v" style="edgeLabel;html=1;align=center;verticalAlign=middle;resizable=0;points=[];fontSize=13;fontFamily=Times New Roman;spacing=1;" vertex="1" connectable="0" parent="c-2YlFzcPJ7fmJTQ_dwO-127">
          <mxGeometry x="-0.3983" y="1" relative="1" as="geometry">
            <mxPoint x="-39" y="-1" as="offset" />
          </mxGeometry>
        </mxCell>
        <mxCell id="c-2YlFzcPJ7fmJTQ_dwO-97" value="&lt;font face=&quot;Times New Roman&quot; style=&quot;font-size: 15px;&quot;&gt;DC12v Battery&lt;/font&gt;" style="rounded=0;whiteSpace=wrap;html=1;fillColor=#dae8fc;strokeColor=#6c8ebf;strokeWidth=2;spacing=1;" vertex="1" parent="1">
          <mxGeometry x="611.75" y="-399" width="190" height="98" as="geometry" />
        </mxCell>
        <mxCell id="c-2YlFzcPJ7fmJTQ_dwO-105" value="" style="endArrow=openThin;html=1;rounded=0;exitX=-0.001;exitY=0.06;exitDx=0;exitDy=0;exitPerimeter=0;entryX=0.992;entryY=0.537;entryDx=0;entryDy=0;entryPerimeter=0;fillColor=#f8cecc;strokeColor=#b85450;strokeWidth=2;spacing=1;endFill=0;" edge="1" parent="1" source="c-2YlFzcPJ7fmJTQ_dwO-1" target="c-2YlFzcPJ7fmJTQ_dwO-84">
          <mxGeometry width="50" height="50" relative="1" as="geometry">
            <mxPoint x="160" y="-250" as="sourcePoint" />
            <mxPoint x="210" y="-300" as="targetPoint" />
          </mxGeometry>
        </mxCell>
        <mxCell id="c-2YlFzcPJ7fmJTQ_dwO-106" value="relay" style="edgeLabel;html=1;align=center;verticalAlign=middle;resizable=0;points=[];fontSize=13;fontFamily=Times New Roman;spacing=1;" vertex="1" connectable="0" parent="c-2YlFzcPJ7fmJTQ_dwO-105">
          <mxGeometry x="0.0127" relative="1" as="geometry">
            <mxPoint as="offset" />
          </mxGeometry>
        </mxCell>
        <mxCell id="c-2YlFzcPJ7fmJTQ_dwO-108" value="" style="endArrow=openThin;html=1;rounded=0;exitX=-0.001;exitY=0.06;exitDx=0;exitDy=0;exitPerimeter=0;entryX=0.992;entryY=0.537;entryDx=0;entryDy=0;entryPerimeter=0;fillColor=#dae8fc;strokeColor=#6c8ebf;strokeWidth=2;spacing=1;endFill=0;" edge="1" parent="1">
          <mxGeometry width="50" height="50" relative="1" as="geometry">
            <mxPoint x="260" y="-280" as="sourcePoint" />
            <mxPoint x="151" y="-280" as="targetPoint" />
          </mxGeometry>
        </mxCell>
        <mxCell id="c-2YlFzcPJ7fmJTQ_dwO-109" value="5v" style="edgeLabel;html=1;align=center;verticalAlign=middle;resizable=0;points=[];fontSize=13;fontFamily=Times New Roman;spacing=1;" vertex="1" connectable="0" parent="c-2YlFzcPJ7fmJTQ_dwO-108">
          <mxGeometry x="0.0127" relative="1" as="geometry">
            <mxPoint as="offset" />
          </mxGeometry>
        </mxCell>
        <mxCell id="c-2YlFzcPJ7fmJTQ_dwO-111" value="" style="endArrow=openThin;html=1;rounded=0;fillColor=#f8cecc;strokeColor=#b85450;strokeWidth=2;spacing=1;endFill=0;" edge="1" parent="1">
          <mxGeometry width="50" height="50" relative="1" as="geometry">
            <mxPoint x="650" y="-528" as="sourcePoint" />
            <mxPoint x="720" y="-528" as="targetPoint" />
          </mxGeometry>
        </mxCell>
        <mxCell id="c-2YlFzcPJ7fmJTQ_dwO-112" value="Signal transmission" style="text;html=1;align=center;verticalAlign=middle;resizable=0;points=[];autosize=1;strokeColor=none;fillColor=none;fontSize=15;fontFamily=Times New Roman;spacing=1;" vertex="1" parent="1">
          <mxGeometry x="726.75" y="-542" width="140" height="30" as="geometry" />
        </mxCell>
        <mxCell id="c-2YlFzcPJ7fmJTQ_dwO-113" value="" style="endArrow=openThin;html=1;rounded=0;fillColor=#dae8fc;strokeColor=#6c8ebf;strokeWidth=2;spacing=1;endFill=0;" edge="1" parent="1">
          <mxGeometry width="50" height="50" relative="1" as="geometry">
            <mxPoint x="650" y="-497" as="sourcePoint" />
            <mxPoint x="720" y="-497" as="targetPoint" />
          </mxGeometry>
        </mxCell>
        <mxCell id="c-2YlFzcPJ7fmJTQ_dwO-114" value="Power transmission" style="text;html=1;align=center;verticalAlign=middle;resizable=0;points=[];autosize=1;strokeColor=none;fillColor=none;fontSize=15;fontFamily=Times New Roman;spacing=1;" vertex="1" parent="1">
          <mxGeometry x="726.75" y="-512" width="140" height="30" as="geometry" />
        </mxCell>
        <mxCell id="c-2YlFzcPJ7fmJTQ_dwO-115" value="" style="endArrow=none;html=1;rounded=0;fillColor=#d5e8d4;strokeColor=#82b366;dashed=1;dashPattern=1 1;endFill=0;strokeWidth=3;spacing=1;" edge="1" parent="1">
          <mxGeometry width="50" height="50" relative="1" as="geometry">
            <mxPoint x="650" y="-463.92" as="sourcePoint" />
            <mxPoint x="720" y="-463.92" as="targetPoint" />
          </mxGeometry>
        </mxCell>
        <mxCell id="c-2YlFzcPJ7fmJTQ_dwO-116" value="Bluetooth signal" style="text;html=1;align=center;verticalAlign=middle;resizable=0;points=[];autosize=1;strokeColor=none;fillColor=none;fontSize=15;fontFamily=Times New Roman;spacing=1;" vertex="1" parent="1">
          <mxGeometry x="736.75" y="-478.5" width="120" height="30" as="geometry" />
        </mxCell>
        <mxCell id="c-2YlFzcPJ7fmJTQ_dwO-120" value="" style="endArrow=openThin;html=1;rounded=0;fillColor=#f8cecc;strokeColor=#000000;strokeWidth=2;spacing=1;endFill=0;" edge="1" parent="1">
          <mxGeometry width="50" height="50" relative="1" as="geometry">
            <mxPoint x="650" y="-430" as="sourcePoint" />
            <mxPoint x="720" y="-430" as="targetPoint" />
          </mxGeometry>
        </mxCell>
        <mxCell id="c-2YlFzcPJ7fmJTQ_dwO-121" value="Comments" style="text;html=1;align=center;verticalAlign=middle;resizable=0;points=[];autosize=1;strokeColor=none;fillColor=none;fontSize=15;fontFamily=Times New Roman;spacing=1;" vertex="1" parent="1">
          <mxGeometry x="751.75" y="-440" width="90" height="30" as="geometry" />
        </mxCell>
        <mxCell id="c-2YlFzcPJ7fmJTQ_dwO-122" value="Legend" style="text;html=1;align=center;verticalAlign=middle;resizable=0;points=[];autosize=1;strokeColor=none;fillColor=none;fontSize=15;fontFamily=Times New Roman;fontStyle=1;spacing=1;" vertex="1" parent="1">
          <mxGeometry x="570" y="-492" width="70" height="30" as="geometry" />
        </mxCell>
      </root>
    </mxGraphModel>
  </diagram>
</mxfile>
